<mxfile host="app.diagrams.net" modified="2023-12-02T04:40:30.308Z" agent="Mozilla/5.0 (Macintosh; Intel Mac OS X 10_15_7) AppleWebKit/537.36 (KHTML, like Gecko) Chrome/119.0.0.0 Safari/537.36" etag="EIVt27EPvAyTWIw5rfh8" version="22.1.5" type="google">
  <diagram name="Page-1" id="fbf-MbKPUzRCfzMwWw2j">
    <mxGraphModel grid="0" page="0" gridSize="10" guides="1" tooltips="1" connect="1" arrows="1" fold="1" pageScale="1" pageWidth="850" pageHeight="1100" math="0" shadow="0">
      <root>
        <mxCell id="0" />
        <mxCell id="1" parent="0" />
        <mxCell id="4fqIfzkiHuzWojqmN6L3-2" value="" style="rounded=0;whiteSpace=wrap;html=1;fillColor=#fff2cc;strokeColor=#d6b656;" vertex="1" parent="1">
          <mxGeometry x="630" y="4270" width="670" height="1360" as="geometry" />
        </mxCell>
        <mxCell id="4fqIfzkiHuzWojqmN6L3-3" value="" style="rounded=0;whiteSpace=wrap;html=1;fillColor=#d5e8d4;strokeColor=#82b366;" vertex="1" parent="1">
          <mxGeometry x="650" y="4660" width="590" height="100" as="geometry" />
        </mxCell>
        <mxCell id="4fqIfzkiHuzWojqmN6L3-4" value="" style="rounded=0;whiteSpace=wrap;html=1;fillColor=#fad7ac;strokeColor=#b46504;" vertex="1" parent="1">
          <mxGeometry x="649" y="4890" width="590" height="120" as="geometry" />
        </mxCell>
        <mxCell id="4fqIfzkiHuzWojqmN6L3-5" value="" style="rounded=0;whiteSpace=wrap;html=1;fillColor=#bac8d3;strokeColor=#23445d;" vertex="1" parent="1">
          <mxGeometry x="649" y="4780" width="590" height="80" as="geometry" />
        </mxCell>
        <mxCell id="4fqIfzkiHuzWojqmN6L3-6" value="" style="rounded=0;whiteSpace=wrap;html=1;fillColor=#ffff88;strokeColor=#36393d;" vertex="1" parent="1">
          <mxGeometry x="650" y="5030" width="590" height="80" as="geometry" />
        </mxCell>
        <mxCell id="4fqIfzkiHuzWojqmN6L3-7" value="&lt;font style=&quot;font-size: 30px;&quot;&gt;NIS&lt;br&gt;- Contact 15 UGC creators abt the agreement&lt;br&gt;&lt;br&gt;RAF&lt;br&gt;- Finish revising final short movie&lt;br&gt;&lt;br&gt;CAR&lt;br&gt;- Kasih proto Inventory Management System + review&lt;br&gt;&lt;br&gt;ALL&lt;br&gt;- review short movie final&lt;br&gt;&lt;/font&gt;" style="text;html=1;strokeColor=none;fillColor=none;align=left;verticalAlign=middle;whiteSpace=wrap;rounded=0;fontFamily=Times New Roman;fontSize=25;" vertex="1" parent="1">
          <mxGeometry x="655" y="4470" width="620" height="850" as="geometry" />
        </mxCell>
        <mxCell id="4fqIfzkiHuzWojqmN6L3-8" value="" style="rounded=0;whiteSpace=wrap;html=1;fillColor=#fff2cc;strokeColor=#d6b656;" vertex="1" parent="1">
          <mxGeometry x="1390" y="4280" width="670" height="1360" as="geometry" />
        </mxCell>
        <mxCell id="4fqIfzkiHuzWojqmN6L3-9" value="" style="rounded=0;whiteSpace=wrap;html=1;fillColor=#d5e8d4;strokeColor=#82b366;" vertex="1" parent="1">
          <mxGeometry x="1425" y="4720" width="590" height="100" as="geometry" />
        </mxCell>
        <mxCell id="4fqIfzkiHuzWojqmN6L3-10" value="" style="rounded=0;whiteSpace=wrap;html=1;fillColor=#fad7ac;strokeColor=#b46504;" vertex="1" parent="1">
          <mxGeometry x="1420" y="4840" width="590" height="150" as="geometry" />
        </mxCell>
        <mxCell id="4fqIfzkiHuzWojqmN6L3-11" value="" style="rounded=0;whiteSpace=wrap;html=1;fillColor=#fff2cc;strokeColor=#d6b656;" vertex="1" parent="1">
          <mxGeometry x="630" y="1400" width="670" height="1360" as="geometry" />
        </mxCell>
        <mxCell id="4fqIfzkiHuzWojqmN6L3-12" value="" style="rounded=0;whiteSpace=wrap;html=1;fillColor=#ffcc99;strokeColor=#36393d;" vertex="1" parent="1">
          <mxGeometry x="675" y="2200" width="560" height="110" as="geometry" />
        </mxCell>
        <mxCell id="4fqIfzkiHuzWojqmN6L3-13" value="" style="rounded=0;whiteSpace=wrap;html=1;fillColor=#dae8fc;strokeColor=#6c8ebf;" vertex="1" parent="1">
          <mxGeometry x="680" y="1910" width="560" height="170" as="geometry" />
        </mxCell>
        <mxCell id="4fqIfzkiHuzWojqmN6L3-14" value="" style="rounded=0;whiteSpace=wrap;html=1;fillColor=#d5e8d4;strokeColor=#82b366;" vertex="1" parent="1">
          <mxGeometry x="680" y="1690" width="560" height="200" as="geometry" />
        </mxCell>
        <mxCell id="4fqIfzkiHuzWojqmN6L3-15" value="" style="rounded=0;whiteSpace=wrap;html=1;fillColor=#bac8d3;strokeColor=#23445d;" vertex="1" parent="1">
          <mxGeometry x="680" y="2090" width="560" height="90" as="geometry" />
        </mxCell>
        <mxCell id="4fqIfzkiHuzWojqmN6L3-16" value="" style="rounded=0;whiteSpace=wrap;html=1;fillColor=#fff2cc;strokeColor=#d6b656;" vertex="1" parent="1">
          <mxGeometry x="2080" y="1400" width="670" height="1360" as="geometry" />
        </mxCell>
        <mxCell id="4fqIfzkiHuzWojqmN6L3-17" value="" style="rounded=0;whiteSpace=wrap;html=1;fillColor=#f8cecc;strokeColor=#b85450;" vertex="1" parent="1">
          <mxGeometry x="2120" y="1500" width="590" height="150" as="geometry" />
        </mxCell>
        <mxCell id="4fqIfzkiHuzWojqmN6L3-18" value="" style="rounded=0;whiteSpace=wrap;html=1;fillColor=#d5e8d4;strokeColor=#82b366;" vertex="1" parent="1">
          <mxGeometry x="2120" y="1670" width="590" height="300" as="geometry" />
        </mxCell>
        <mxCell id="4fqIfzkiHuzWojqmN6L3-19" value="" style="rounded=0;whiteSpace=wrap;html=1;fillColor=#dae8fc;strokeColor=#6c8ebf;" vertex="1" parent="1">
          <mxGeometry x="2120" y="1990" width="590" height="190" as="geometry" />
        </mxCell>
        <mxCell id="4fqIfzkiHuzWojqmN6L3-20" value="" style="rounded=0;whiteSpace=wrap;html=1;fillColor=#bac8d3;strokeColor=#23445d;" vertex="1" parent="1">
          <mxGeometry x="2120" y="2200" width="590" height="130" as="geometry" />
        </mxCell>
        <mxCell id="4fqIfzkiHuzWojqmN6L3-21" value="" style="rounded=0;whiteSpace=wrap;html=1;fillColor=#ffcc99;strokeColor=#36393d;" vertex="1" parent="1">
          <mxGeometry x="2120" y="2350" width="590" height="130" as="geometry" />
        </mxCell>
        <mxCell id="4fqIfzkiHuzWojqmN6L3-22" value="" style="rounded=0;whiteSpace=wrap;html=1;fillColor=#ffff88;strokeColor=#36393d;" vertex="1" parent="1">
          <mxGeometry x="2120" y="2500" width="590" height="160" as="geometry" />
        </mxCell>
        <mxCell id="4fqIfzkiHuzWojqmN6L3-23" value="&lt;font face=&quot;Times New Roman&quot; style=&quot;font-size: 30px;&quot;&gt;VAL&lt;br&gt;&lt;/font&gt;&lt;span style=&quot;font-size: 30px; background-color: initial;&quot;&gt;-&amp;nbsp;&lt;/span&gt;&lt;span style=&quot;font-size: 30px; font-family: Q_bU-syG4hvflAbIMg88; background-color: initial;&quot;&gt;selesaiin UI website&lt;br&gt;&lt;/span&gt;&lt;span style=&quot;font-size: 30px; font-family: Q_bU-syG4hvflAbIMg88; background-color: initial;&quot;&gt;- review the short movie + kasih feedback&lt;/span&gt;&lt;span style=&quot;font-size: 30px; font-family: Q_bU-syG4hvflAbIMg88; background-color: initial;&quot;&gt;&lt;br&gt;&lt;/span&gt;&lt;p style=&quot;margin: 0px; font-variant-numeric: normal; font-variant-east-asian: normal; font-variant-alternates: normal; font-kerning: auto; font-optical-sizing: auto; font-feature-settings: normal; font-variation-settings: normal; font-variant-position: normal; font-stretch: normal; line-height: normal; min-height: 15px; font-size: 30px;&quot; class=&quot;p2&quot;&gt;&lt;font face=&quot;Q_bU-syG4hvflAbIMg88&quot; style=&quot;font-size: 30px;&quot;&gt;&lt;br&gt;&lt;/font&gt;&lt;/p&gt;&lt;font face=&quot;Q_bU-syG4hvflAbIMg88&quot; style=&quot;font-size: 30px;&quot;&gt;NIS&lt;br&gt;&lt;/font&gt;&lt;span style=&quot;font-size: 30px; font-family: Q_bU-syG4hvflAbIMg88; background-color: initial;&quot;&gt;- selesaiin UI website&lt;br&gt;&lt;/span&gt;&lt;span style=&quot;font-size: 30px; font-family: Q_bU-syG4hvflAbIMg88; background-color: initial;&quot;&gt;- review the short movie + kasih feedback&lt;br&gt;&lt;/span&gt;&lt;span style=&quot;font-size: 30px; font-family: Q_bU-syG4hvflAbIMg88; background-color: initial;&quot;&gt;- learn about ig and ytshorts algorithm&lt;br&gt;&lt;/span&gt;&lt;span style=&quot;font-size: 30px; font-family: Q_bU-syG4hvflAbIMg88; background-color: initial;&quot;&gt;- optimize tiktok + youtube&lt;br&gt;&lt;/span&gt;&lt;span style=&quot;font-size: 30px; font-family: Q_bU-syG4hvflAbIMg88; background-color: initial;&quot;&gt;- start coming back on instagram and posting frequently&lt;/span&gt;&lt;span style=&quot;font-size: 30px; font-family: Q_bU-syG4hvflAbIMg88; background-color: initial;&quot; class=&quot;Apple-converted-space&quot;&gt;&amp;nbsp;&lt;br&gt;&lt;span style=&quot;background-color: initial;&quot;&gt;- finalize captions for posts in stockpile&lt;/span&gt;&lt;br&gt;&lt;/span&gt;&lt;p style=&quot;margin: 0px; font-variant-numeric: normal; font-variant-east-asian: normal; font-variant-alternates: normal; font-kerning: auto; font-optical-sizing: auto; font-feature-settings: normal; font-variation-settings: normal; font-variant-position: normal; font-stretch: normal; line-height: normal; min-height: 15px; font-size: 30px;&quot; class=&quot;p2&quot;&gt;&lt;font face=&quot;Q_bU-syG4hvflAbIMg88&quot; style=&quot;font-size: 30px;&quot;&gt;&lt;br&gt;&lt;/font&gt;&lt;/p&gt;&lt;font face=&quot;Q_bU-syG4hvflAbIMg88&quot; style=&quot;font-size: 30px;&quot;&gt;CHELS&lt;br&gt;&lt;/font&gt;&lt;span style=&quot;font-size: 30px; font-family: Q_bU-syG4hvflAbIMg88; background-color: initial;&quot;&gt;- selesaiin UI website&lt;br&gt;&lt;/span&gt;&lt;span style=&quot;font-size: 30px; font-family: Q_bU-syG4hvflAbIMg88; background-color: initial;&quot;&gt;- review the short movie + kasih feedback&lt;br&gt;&lt;/span&gt;&lt;span style=&quot;font-size: 30px; font-family: Q_bU-syG4hvflAbIMg88; background-color: initial;&quot;&gt;- learn about tiktok algorithm&lt;br&gt;&lt;/span&gt;&lt;span style=&quot;font-size: 30px; font-family: Q_bU-syG4hvflAbIMg88; background-color: initial;&quot;&gt;- finalize captions for posts in stockpile&lt;/span&gt;&lt;span style=&quot;font-size: 30px; font-family: Q_bU-syG4hvflAbIMg88; background-color: initial;&quot;&gt;&lt;br&gt;&lt;/span&gt;&lt;p style=&quot;margin: 0px; font-variant-numeric: normal; font-variant-east-asian: normal; font-variant-alternates: normal; font-kerning: auto; font-optical-sizing: auto; font-feature-settings: normal; font-variation-settings: normal; font-variant-position: normal; font-stretch: normal; line-height: normal; min-height: 15px; font-size: 30px;&quot; class=&quot;p2&quot;&gt;&lt;font face=&quot;Q_bU-syG4hvflAbIMg88&quot; style=&quot;font-size: 30px;&quot;&gt;&lt;br&gt;&lt;/font&gt;&lt;/p&gt;&lt;font face=&quot;Q_bU-syG4hvflAbIMg88&quot; style=&quot;font-size: 30px;&quot;&gt;RAF&lt;br&gt;&lt;/font&gt;&lt;span style=&quot;font-size: 30px; font-family: Q_bU-syG4hvflAbIMg88; background-color: initial;&quot;&gt;- give short movie for review&lt;br&gt;&lt;/span&gt;&lt;font face=&quot;Q_bU-syG4hvflAbIMg88&quot; style=&quot;font-size: 30px;&quot;&gt;- start revising according to feedback&lt;br&gt;&lt;/font&gt;&lt;p style=&quot;margin: 0px; font-variant-numeric: normal; font-variant-east-asian: normal; font-variant-alternates: normal; font-kerning: auto; font-optical-sizing: auto; font-feature-settings: normal; font-variation-settings: normal; font-variant-position: normal; font-stretch: normal; line-height: normal; min-height: 15px; font-size: 30px;&quot; class=&quot;p2&quot;&gt;&lt;font face=&quot;Q_bU-syG4hvflAbIMg88&quot; style=&quot;font-size: 30px;&quot;&gt;&lt;br&gt;&lt;/font&gt;&lt;/p&gt;&lt;font face=&quot;Q_bU-syG4hvflAbIMg88&quot; style=&quot;font-size: 30px;&quot;&gt;CAR&lt;br&gt;&lt;/font&gt;&lt;span style=&quot;font-size: 30px; font-family: Q_bU-syG4hvflAbIMg88; background-color: initial;&quot;&gt;- review the short movie + kasih feedback&lt;br&gt;&lt;/span&gt;&lt;font face=&quot;Q_bU-syG4hvflAbIMg88&quot; style=&quot;font-size: 30px;&quot;&gt;- start coding website&lt;br&gt;&lt;/font&gt;&lt;p style=&quot;margin: 0px; font-variant-numeric: normal; font-variant-east-asian: normal; font-variant-alternates: normal; font-kerning: auto; font-optical-sizing: auto; font-feature-settings: normal; font-variation-settings: normal; font-variant-position: normal; font-stretch: normal; line-height: normal; min-height: 15px; font-size: 30px;&quot; class=&quot;p2&quot;&gt;&lt;font face=&quot;Q_bU-syG4hvflAbIMg88&quot; style=&quot;font-size: 30px;&quot;&gt;&lt;br&gt;&lt;/font&gt;&lt;/p&gt;&lt;font face=&quot;Q_bU-syG4hvflAbIMg88&quot; style=&quot;font-size: 30px;&quot;&gt;ALL&lt;br&gt;&lt;/font&gt;&lt;span style=&quot;font-size: 30px; font-family: Q_bU-syG4hvflAbIMg88; background-color: initial;&quot;&gt;- finalize poster/banner (include finalized foto produk)&lt;/span&gt;&lt;font face=&quot;Q_bU-syG4hvflAbIMg88&quot; style=&quot;font-size: 30px;&quot;&gt;&lt;br&gt;&lt;/font&gt;" style="text;html=1;strokeColor=none;fillColor=none;align=left;verticalAlign=middle;whiteSpace=wrap;rounded=0;fontFamily=Times New Roman;fontSize=25;" vertex="1" parent="1">
          <mxGeometry x="2130" y="1540" width="580" height="1060" as="geometry" />
        </mxCell>
        <mxCell id="4fqIfzkiHuzWojqmN6L3-24" value="" style="rounded=0;whiteSpace=wrap;html=1;fillColor=#fff2cc;strokeColor=#d6b656;" vertex="1" parent="1">
          <mxGeometry x="1360" y="1400" width="670" height="1370" as="geometry" />
        </mxCell>
        <mxCell id="4fqIfzkiHuzWojqmN6L3-25" value="" style="rounded=0;whiteSpace=wrap;html=1;fillColor=#f8cecc;strokeColor=#b85450;" vertex="1" parent="1">
          <mxGeometry x="1400" y="1500" width="590" height="150" as="geometry" />
        </mxCell>
        <mxCell id="4fqIfzkiHuzWojqmN6L3-26" value="" style="rounded=0;whiteSpace=wrap;html=1;fillColor=#d5e8d4;strokeColor=#82b366;" vertex="1" parent="1">
          <mxGeometry x="1400" y="1670" width="590" height="340" as="geometry" />
        </mxCell>
        <mxCell id="4fqIfzkiHuzWojqmN6L3-27" value="" style="rounded=0;whiteSpace=wrap;html=1;fillColor=#dae8fc;strokeColor=#6c8ebf;" vertex="1" parent="1">
          <mxGeometry x="1400" y="2030" width="590" height="200" as="geometry" />
        </mxCell>
        <mxCell id="4fqIfzkiHuzWojqmN6L3-28" value="" style="rounded=0;whiteSpace=wrap;html=1;fillColor=#ffcc99;strokeColor=#36393d;" vertex="1" parent="1">
          <mxGeometry x="1400" y="2540" width="590" height="100" as="geometry" />
        </mxCell>
        <mxCell id="4fqIfzkiHuzWojqmN6L3-29" value="" style="rounded=0;whiteSpace=wrap;html=1;fillColor=#ffff88;strokeColor=#36393d;" vertex="1" parent="1">
          <mxGeometry x="1400" y="2650" width="590" height="110" as="geometry" />
        </mxCell>
        <mxCell id="4fqIfzkiHuzWojqmN6L3-30" value="" style="rounded=0;whiteSpace=wrap;html=1;fillColor=#bac8d3;strokeColor=#23445d;" vertex="1" parent="1">
          <mxGeometry x="1400" y="2250" width="590" height="270" as="geometry" />
        </mxCell>
        <mxCell id="4fqIfzkiHuzWojqmN6L3-31" value="&lt;font face=&quot;Times New Roman&quot; style=&quot;font-size: 30px;&quot;&gt;VAL&lt;br&gt;&lt;/font&gt;&lt;span style=&quot;font-size: 30px; background-color: initial;&quot;&gt;-&amp;nbsp;&lt;/span&gt;&lt;span style=&quot;font-size: 30px; font-family: _QVonr7jQl7oQLysi89x; background-color: initial;&quot;&gt;finalize the company profile&lt;br&gt;&lt;/span&gt;&lt;span style=&quot;font-size: 30px; font-family: _QVonr7jQl7oQLysi89x; background-color: initial;&quot;&gt;- finalize system for reseller&lt;br&gt;&lt;/span&gt;&lt;span style=&quot;font-size: 30px; font-family: _QVonr7jQl7oQLysi89x; background-color: initial;&quot;&gt;- finalize financial plan&lt;/span&gt;&lt;span style=&quot;font-size: 30px; font-family: _QVonr7jQl7oQLysi89x; background-color: initial;&quot;&gt;&lt;br&gt;&lt;/span&gt;&lt;p style=&quot;margin: 0px; font-variant-numeric: normal; font-variant-east-asian: normal; font-variant-alternates: normal; font-kerning: auto; font-optical-sizing: auto; font-feature-settings: normal; font-variation-settings: normal; font-variant-position: normal; font-stretch: normal; line-height: normal; min-height: 15px; font-size: 30px;&quot; class=&quot;p2&quot;&gt;&lt;font face=&quot;_QVonr7jQl7oQLysi89x&quot; style=&quot;font-size: 30px;&quot;&gt;&lt;br&gt;&lt;/font&gt;&lt;/p&gt;&lt;font face=&quot;_QVonr7jQl7oQLysi89x&quot; style=&quot;font-size: 30px;&quot;&gt;NIS&lt;br&gt;&lt;/font&gt;&lt;span style=&quot;font-size: 30px; font-family: _QVonr7jQl7oQLysi89x; background-color: initial;&quot;&gt;- adjust timeline &amp;amp; weekly target sesuai divisi&lt;br&gt;&lt;/span&gt;&lt;span style=&quot;font-size: 30px; font-family: _QVonr7jQl7oQLysi89x; background-color: initial;&quot;&gt;- mulai bikin figma website design&lt;br&gt;&lt;/span&gt;&lt;span style=&quot;font-size: 30px; font-family: _QVonr7jQl7oQLysi89x; background-color: initial;&quot;&gt;- finalize the photoshoot brief (looks, models siapa aja, etc. detailed)&lt;br&gt;&lt;/span&gt;&lt;span style=&quot;font-size: 30px; font-family: _QVonr7jQl7oQLysi89x; background-color: initial;&quot;&gt;- contact the models + kasih brief nya&lt;br&gt;&lt;/span&gt;&lt;span style=&quot;font-size: 30px; font-family: _QVonr7jQl7oQLysi89x; background-color: initial;&quot;&gt;- finalize UGC brief + agreement&lt;br&gt;&lt;/span&gt;&lt;span style=&quot;font-size: 30px; font-family: _QVonr7jQl7oQLysi89x; background-color: initial;&quot;&gt;- optimize IG (messaging system, highlights, etc. All the features dipake)&lt;/span&gt;&lt;span style=&quot;font-size: 30px; font-family: _QVonr7jQl7oQLysi89x; background-color: initial;&quot;&gt;&lt;br&gt;&lt;/span&gt;&lt;p style=&quot;margin: 0px; font-variant-numeric: normal; font-variant-east-asian: normal; font-variant-alternates: normal; font-kerning: auto; font-optical-sizing: auto; font-feature-settings: normal; font-variation-settings: normal; font-variant-position: normal; font-stretch: normal; line-height: normal; min-height: 15px; font-size: 30px;&quot; class=&quot;p2&quot;&gt;&lt;font face=&quot;_QVonr7jQl7oQLysi89x&quot; style=&quot;font-size: 30px;&quot;&gt;&lt;br&gt;&lt;/font&gt;&lt;/p&gt;&lt;font face=&quot;_QVonr7jQl7oQLysi89x&quot; style=&quot;font-size: 30px;&quot;&gt;CHELS&lt;br&gt;&lt;/font&gt;&lt;span style=&quot;font-size: 30px; font-family: _QVonr7jQl7oQLysi89x; background-color: initial;&quot;&gt;- mulai bikin figma website design&lt;br&gt;&lt;/span&gt;&lt;span style=&quot;font-size: 30px; font-family: _QVonr7jQl7oQLysi89x; background-color: initial;&quot;&gt;- finalize the photoshoot brief (looks, models siapa aja, etc. detailed)&lt;br&gt;&lt;/span&gt;&lt;span style=&quot;font-size: 30px; font-family: _QVonr7jQl7oQLysi89x; background-color: initial;&quot;&gt;- finalize UGC brief&amp;nbsp;&lt;/span&gt;&lt;span style=&quot;font-size: 30px; font-family: _QVonr7jQl7oQLysi89x; background-color: initial;&quot;&gt;&lt;br&gt;&lt;/span&gt;&lt;p style=&quot;margin: 0px; font-variant-numeric: normal; font-variant-east-asian: normal; font-variant-alternates: normal; font-kerning: auto; font-optical-sizing: auto; font-feature-settings: normal; font-variation-settings: normal; font-variant-position: normal; font-stretch: normal; line-height: normal; min-height: 15px; font-size: 30px;&quot; class=&quot;p2&quot;&gt;&lt;font face=&quot;_QVonr7jQl7oQLysi89x&quot; style=&quot;font-size: 30px;&quot;&gt;&lt;br&gt;&lt;/font&gt;&lt;/p&gt;&lt;font face=&quot;_QVonr7jQl7oQLysi89x&quot; style=&quot;font-size: 30px;&quot;&gt;RAF&lt;br&gt;&lt;/font&gt;&lt;span style=&quot;font-size: 30px; font-family: _QVonr7jQl7oQLysi89x; background-color: initial;&quot;&gt;- adjust timeline &amp;amp; weekly target sesuai divisi&lt;br&gt;&lt;/span&gt;&lt;span style=&quot;font-size: 30px; font-family: _QVonr7jQl7oQLysi89x; background-color: initial;&quot;&gt;- implement the finalized marketing campaign to our short video&lt;br&gt;&lt;/span&gt;&lt;span style=&quot;font-size: 30px; font-family: _QVonr7jQl7oQLysi89x; background-color: initial;&quot;&gt;- tunggu updates val ttg kpn mulai listing di tokped &amp;amp; shopee&lt;br&gt;&lt;/span&gt;&lt;span style=&quot;font-size: 30px; font-family: _QVonr7jQl7oQLysi89x; background-color: initial;&quot;&gt;- Edit hasil photoshoot product di photoshop&lt;/span&gt;&lt;span style=&quot;font-size: 30px; font-family: _QVonr7jQl7oQLysi89x; background-color: initial;&quot;&gt;&lt;br&gt;&lt;/span&gt;&lt;p style=&quot;margin: 0px; font-variant-numeric: normal; font-variant-east-asian: normal; font-variant-alternates: normal; font-kerning: auto; font-optical-sizing: auto; font-feature-settings: normal; font-variation-settings: normal; font-variant-position: normal; font-stretch: normal; line-height: normal; min-height: 15px; font-size: 30px;&quot; class=&quot;p2&quot;&gt;&lt;font face=&quot;_QVonr7jQl7oQLysi89x&quot; style=&quot;font-size: 30px;&quot;&gt;&lt;br&gt;&lt;/font&gt;&lt;/p&gt;&lt;font face=&quot;_QVonr7jQl7oQLysi89x&quot; style=&quot;font-size: 30px;&quot;&gt;CAR&lt;br&gt;&lt;/font&gt;&lt;span style=&quot;font-size: 30px; font-family: _QVonr7jQl7oQLysi89x; background-color: initial;&quot;&gt;- adjust timeline &amp;amp; weekly target sesuai divisi&lt;br&gt;&lt;/span&gt;&lt;font face=&quot;_QVonr7jQl7oQLysi89x&quot; style=&quot;font-size: 30px;&quot;&gt;&lt;br&gt;ALL&lt;br&gt;- mulai bikin poster and banner (sekalian week 12 hatchery)&amp;nbsp;&lt;br&gt;&lt;/font&gt;" style="text;html=1;strokeColor=none;fillColor=none;align=left;verticalAlign=middle;whiteSpace=wrap;rounded=0;fontFamily=Times New Roman;fontSize=25;" vertex="1" parent="1">
          <mxGeometry x="1420" y="1580" width="580" height="1100" as="geometry" />
        </mxCell>
        <mxCell id="4fqIfzkiHuzWojqmN6L3-32" value="" style="rounded=1;whiteSpace=wrap;html=1;" vertex="1" parent="1">
          <mxGeometry x="675" y="1560" width="120" height="60" as="geometry" />
        </mxCell>
        <mxCell id="4fqIfzkiHuzWojqmN6L3-33" value="01 December, Friday" style="text;html=1;strokeColor=none;fillColor=none;align=center;verticalAlign=middle;whiteSpace=wrap;rounded=0;fontFamily=Times New Roman;fontSize=50;fontStyle=1" vertex="1" parent="1">
          <mxGeometry x="700" y="1450" width="488" height="30" as="geometry" />
        </mxCell>
        <mxCell id="4fqIfzkiHuzWojqmN6L3-34" value="02 December, Sat" style="text;html=1;strokeColor=none;fillColor=none;align=center;verticalAlign=middle;whiteSpace=wrap;rounded=0;fontFamily=Times New Roman;fontSize=50;fontStyle=1" vertex="1" parent="1">
          <mxGeometry x="1430" y="1450" width="488" height="30" as="geometry" />
        </mxCell>
        <mxCell id="4fqIfzkiHuzWojqmN6L3-35" value="03 December, Sunday" style="text;html=1;strokeColor=none;fillColor=none;align=center;verticalAlign=middle;whiteSpace=wrap;rounded=0;fontFamily=Times New Roman;fontSize=50;fontStyle=1" vertex="1" parent="1">
          <mxGeometry x="2150" y="1450" width="488" height="30" as="geometry" />
        </mxCell>
        <mxCell id="4fqIfzkiHuzWojqmN6L3-36" value="" style="rounded=0;whiteSpace=wrap;html=1;fillColor=#fff2cc;strokeColor=#d6b656;" vertex="1" parent="1">
          <mxGeometry x="630" y="2840" width="670" height="1360" as="geometry" />
        </mxCell>
        <mxCell id="4fqIfzkiHuzWojqmN6L3-37" value="04 December, Mon" style="text;html=1;strokeColor=none;fillColor=none;align=center;verticalAlign=middle;whiteSpace=wrap;rounded=0;fontFamily=Times New Roman;fontSize=50;fontStyle=1" vertex="1" parent="1">
          <mxGeometry x="700" y="2890" width="488" height="30" as="geometry" />
        </mxCell>
        <mxCell id="4fqIfzkiHuzWojqmN6L3-38" value="" style="rounded=0;whiteSpace=wrap;html=1;fillColor=#fff2cc;strokeColor=#d6b656;" vertex="1" parent="1">
          <mxGeometry x="1375" y="2820" width="670" height="1360" as="geometry" />
        </mxCell>
        <mxCell id="4fqIfzkiHuzWojqmN6L3-39" value="05 December, Tues" style="text;html=1;strokeColor=none;fillColor=none;align=center;verticalAlign=middle;whiteSpace=wrap;rounded=0;fontFamily=Times New Roman;fontSize=50;fontStyle=1" vertex="1" parent="1">
          <mxGeometry x="1445" y="2870" width="488" height="30" as="geometry" />
        </mxCell>
        <mxCell id="4fqIfzkiHuzWojqmN6L3-40" value="" style="rounded=0;whiteSpace=wrap;html=1;fillColor=#f8cecc;strokeColor=#b85450;" vertex="1" parent="1">
          <mxGeometry x="680" y="1560" width="560" height="110" as="geometry" />
        </mxCell>
        <mxCell id="4fqIfzkiHuzWojqmN6L3-41" value="" style="rounded=0;whiteSpace=wrap;html=1;fillColor=#fff2cc;strokeColor=#d6b656;" vertex="1" parent="1">
          <mxGeometry x="2110" y="2820" width="670" height="1360" as="geometry" />
        </mxCell>
        <mxCell id="4fqIfzkiHuzWojqmN6L3-42" value="&lt;font face=&quot;Times New Roman&quot; style=&quot;font-size: 30px;&quot;&gt;VAL&lt;br&gt;&lt;/font&gt;&lt;span style=&quot;font-size: 30px; background-color: initial;&quot;&gt;-&amp;nbsp;&lt;/span&gt;&lt;span style=&quot;font-size: 30px; font-family: OeQKURFRGHSxB_Ub5INj; background-color: initial;&quot;&gt;finalize marketing campaign&lt;br&gt;&lt;/span&gt;&lt;span style=&quot;font-size: 30px; font-family: OeQKURFRGHSxB_Ub5INj; background-color: initial;&quot;&gt;- cari inspos buat photoshoot&lt;br&gt;&lt;/span&gt;&lt;span style=&quot;font-size: 30px; font-family: OeQKURFRGHSxB_Ub5INj; background-color: initial;&quot;&gt;&lt;br&gt;&lt;/span&gt;&lt;font face=&quot;OeQKURFRGHSxB_Ub5INj&quot; style=&quot;font-size: 30px;&quot;&gt;NIS&lt;br&gt;&lt;/font&gt;&lt;span style=&quot;font-size: 30px; font-family: OeQKURFRGHSxB_Ub5INj; background-color: initial;&quot;&gt;- Marketing workflow (implement AI etc)&lt;br&gt;&lt;/span&gt;&lt;span style=&quot;font-size: 30px; font-family: OeQKURFRGHSxB_Ub5INj; background-color: initial;&quot;&gt;- marketing content (9)&lt;br&gt;&lt;/span&gt;&lt;span style=&quot;font-size: 30px; font-family: OeQKURFRGHSxB_Ub5INj; background-color: initial;&quot;&gt;- finalize marketing campaign&lt;br&gt;&lt;/span&gt;&lt;span style=&quot;font-size: 30px; font-family: OeQKURFRGHSxB_Ub5INj; background-color: initial;&quot;&gt;- cari inspos buat photoshoot&lt;br&gt;&lt;/span&gt;&lt;span style=&quot;font-size: 30px; font-family: OeQKURFRGHSxB_Ub5INj; background-color: initial;&quot;&gt;&lt;br&gt;&lt;/span&gt;&lt;font face=&quot;OeQKURFRGHSxB_Ub5INj&quot; style=&quot;font-size: 30px;&quot;&gt;CHELS&lt;br&gt;&lt;/font&gt;&lt;span style=&quot;font-size: 30px; font-family: OeQKURFRGHSxB_Ub5INj; background-color: initial;&quot;&gt;- marketing content (9)&lt;br&gt;&lt;/span&gt;&lt;span style=&quot;font-size: 30px; font-family: OeQKURFRGHSxB_Ub5INj; background-color: initial;&quot;&gt;- finalize marketing campaign&lt;br&gt;&lt;/span&gt;&lt;span style=&quot;font-size: 30px; font-family: OeQKURFRGHSxB_Ub5INj; background-color: initial;&quot;&gt;- cari inspos buat photoshoot&lt;br&gt;&lt;/span&gt;&lt;span style=&quot;font-size: 30px; font-family: OeQKURFRGHSxB_Ub5INj; background-color: initial;&quot;&gt;&lt;br&gt;&lt;/span&gt;&lt;font face=&quot;OeQKURFRGHSxB_Ub5INj&quot; style=&quot;font-size: 30px;&quot;&gt;RAF&lt;br&gt;&lt;/font&gt;&lt;span style=&quot;font-family: OeQKURFRGHSxB_Ub5INj; font-size: 30px; background-color: initial;&quot;&gt;- continue editing short movie&lt;br&gt;&lt;/span&gt;&lt;font face=&quot;OeQKURFRGHSxB_Ub5INj&quot; style=&quot;font-size: 30px;&quot;&gt;&lt;br&gt;&lt;/font&gt;&lt;font face=&quot;OeQKURFRGHSxB_Ub5INj&quot; style=&quot;font-size: 30px;&quot;&gt;CAR&lt;br&gt;&lt;/font&gt;&lt;span style=&quot;font-size: 30px; font-family: OeQKURFRGHSxB_Ub5INj; background-color: initial;&quot;&gt;- upload day 16-30 ke gdrive&lt;/span&gt;&lt;font face=&quot;OeQKURFRGHSxB_Ub5INj&quot; style=&quot;font-size: 30px;&quot;&gt;&lt;br&gt;&lt;/font&gt;" style="text;html=1;strokeColor=none;fillColor=none;align=left;verticalAlign=middle;whiteSpace=wrap;rounded=0;fontFamily=Times New Roman;fontSize=25;" vertex="1" parent="1">
          <mxGeometry x="695" y="1490" width="580" height="860" as="geometry" />
        </mxCell>
        <mxCell id="4fqIfzkiHuzWojqmN6L3-43" value="06 December, Wed" style="text;html=1;strokeColor=none;fillColor=none;align=center;verticalAlign=middle;whiteSpace=wrap;rounded=0;fontFamily=Times New Roman;fontSize=50;fontStyle=1" vertex="1" parent="1">
          <mxGeometry x="2180" y="2870" width="488" height="30" as="geometry" />
        </mxCell>
        <mxCell id="4fqIfzkiHuzWojqmN6L3-44" value="&lt;font style=&quot;font-size: 30px;&quot;&gt;NIS&lt;br&gt;- Post short movie on youtube&lt;br&gt;&lt;br&gt;CAR&lt;br&gt;- Kasih proto Inventory Management System + review&lt;br&gt;- Kasih proto website&lt;br&gt;&lt;/font&gt;" style="text;html=1;strokeColor=none;fillColor=none;align=left;verticalAlign=middle;whiteSpace=wrap;rounded=0;fontFamily=Times New Roman;fontSize=25;" vertex="1" parent="1">
          <mxGeometry x="1435" y="4440" width="580" height="850" as="geometry" />
        </mxCell>
        <mxCell id="4fqIfzkiHuzWojqmN6L3-45" value="" style="rounded=0;whiteSpace=wrap;html=1;fillColor=#ffff88;strokeColor=#36393d;" vertex="1" parent="1">
          <mxGeometry x="660" y="2980" width="590" height="170" as="geometry" />
        </mxCell>
        <mxCell id="4fqIfzkiHuzWojqmN6L3-46" value="" style="rounded=0;whiteSpace=wrap;html=1;fillColor=#d5e8d4;strokeColor=#82b366;" vertex="1" parent="1">
          <mxGeometry x="660" y="3180" width="590" height="170" as="geometry" />
        </mxCell>
        <mxCell id="4fqIfzkiHuzWojqmN6L3-47" value="" style="rounded=0;whiteSpace=wrap;html=1;fillColor=#ffff88;strokeColor=#36393d;" vertex="1" parent="1">
          <mxGeometry x="1415" y="3050" width="590" height="170" as="geometry" />
        </mxCell>
        <mxCell id="4fqIfzkiHuzWojqmN6L3-48" value="" style="rounded=0;whiteSpace=wrap;html=1;fillColor=#f8cecc;strokeColor=#b85450;" vertex="1" parent="1">
          <mxGeometry x="2150" y="2990" width="590" height="150" as="geometry" />
        </mxCell>
        <mxCell id="4fqIfzkiHuzWojqmN6L3-49" value="" style="rounded=0;whiteSpace=wrap;html=1;fillColor=#d5e8d4;strokeColor=#82b366;" vertex="1" parent="1">
          <mxGeometry x="2150" y="3150" width="590" height="130" as="geometry" />
        </mxCell>
        <mxCell id="4fqIfzkiHuzWojqmN6L3-50" value="" style="rounded=0;whiteSpace=wrap;html=1;fillColor=#dae8fc;strokeColor=#6c8ebf;" vertex="1" parent="1">
          <mxGeometry x="2155" y="3290" width="590" height="120" as="geometry" />
        </mxCell>
        <mxCell id="4fqIfzkiHuzWojqmN6L3-51" value="" style="rounded=0;whiteSpace=wrap;html=1;fillColor=#bac8d3;strokeColor=#23445d;" vertex="1" parent="1">
          <mxGeometry x="2155" y="3430" width="590" height="200" as="geometry" />
        </mxCell>
        <mxCell id="4fqIfzkiHuzWojqmN6L3-52" value="" style="rounded=0;whiteSpace=wrap;html=1;fillColor=#fad7ac;strokeColor=#b46504;" vertex="1" parent="1">
          <mxGeometry x="2150" y="3650" width="590" height="120" as="geometry" />
        </mxCell>
        <mxCell id="4fqIfzkiHuzWojqmN6L3-53" value="&lt;font face=&quot;Times New Roman&quot;&gt;&lt;font style=&quot;font-size: 30px;&quot;&gt;ALL&lt;br&gt;- Photoshoot sm models pake hp&lt;br&gt;- bahas 3 min product promotion video&lt;br&gt;&lt;/font&gt;&lt;br&gt;&lt;/font&gt;&lt;p style=&quot;margin: 0px; font-variant-numeric: normal; font-variant-east-asian: normal; font-variant-alternates: normal; font-kerning: auto; font-optical-sizing: auto; font-feature-settings: normal; font-variation-settings: normal; font-variant-position: normal; font-stretch: normal; line-height: normal; min-height: 15px; font-size: 30px;&quot; class=&quot;p2&quot;&gt;&lt;font face=&quot;tflP8d8BNWB0M9iI6xPX&quot; style=&quot;font-size: 30px;&quot;&gt;&lt;br&gt;&lt;/font&gt;&lt;/p&gt;&lt;font style=&quot;font-size: 30px;&quot;&gt;&lt;font face=&quot;tflP8d8BNWB0M9iI6xPX&quot;&gt;NIS&lt;br&gt;&lt;span style=&quot;background-color: initial;&quot;&gt;-&amp;nbsp;&lt;/span&gt;&lt;span style=&quot;background-color: initial;&quot;&gt;kasih sample product, brief and agreement ke kaori (UGC #1)&lt;/span&gt;&lt;/font&gt;&lt;br&gt;&lt;/font&gt;" style="text;html=1;strokeColor=none;fillColor=none;align=left;verticalAlign=middle;whiteSpace=wrap;rounded=0;fontFamily=Times New Roman;fontSize=25;" vertex="1" parent="1">
          <mxGeometry x="675" y="2970" width="580" height="380" as="geometry" />
        </mxCell>
        <mxCell id="4fqIfzkiHuzWojqmN6L3-54" value="&lt;font face=&quot;Times New Roman&quot;&gt;&lt;font style=&quot;font-size: 30px;&quot;&gt;ALL&lt;br&gt;-&amp;nbsp;&lt;/font&gt;&lt;/font&gt;discuss financial plan for next weeks hatchery presentation" style="text;html=1;strokeColor=none;fillColor=none;align=left;verticalAlign=middle;whiteSpace=wrap;rounded=0;fontFamily=Times New Roman;fontSize=25;" vertex="1" parent="1">
          <mxGeometry x="1430" y="2960" width="570" height="350" as="geometry" />
        </mxCell>
        <mxCell id="4fqIfzkiHuzWojqmN6L3-55" value="&lt;font style=&quot;font-size: 30px;&quot;&gt;VAL&lt;br&gt;&lt;span style=&quot;background-color: initial;&quot;&gt;- give list of 5 UGC creators (fixed)&lt;br&gt;&lt;/span&gt;&lt;span style=&quot;background-color: initial;&quot;&gt;- review short movie&amp;nbsp;&lt;/span&gt;&lt;span style=&quot;background-color: initial;&quot;&gt;&lt;br&gt;&lt;/span&gt;&lt;/font&gt;&lt;p style=&quot;margin: 0px; font-variant-numeric: normal; font-variant-east-asian: normal; font-variant-alternates: normal; font-kerning: auto; font-optical-sizing: auto; font-feature-settings: normal; font-variation-settings: normal; font-variant-position: normal; font-stretch: normal; line-height: normal; min-height: 15px; font-size: 30px;&quot; class=&quot;p2&quot;&gt;&lt;font style=&quot;font-size: 30px;&quot;&gt;&lt;br&gt;&lt;/font&gt;&lt;/p&gt;&lt;font style=&quot;font-size: 30px;&quot;&gt;NIS&lt;br&gt;&lt;span style=&quot;background-color: initial;&quot;&gt;- give list of 5 UGC creators (fixed)&lt;br&gt;&lt;/span&gt;&lt;span style=&quot;background-color: initial;&quot;&gt;- review short movie &lt;/span&gt;&lt;span style=&quot;background-color: initial;&quot; class=&quot;Apple-converted-space&quot;&gt;&amp;nbsp;&lt;/span&gt;&lt;span style=&quot;background-color: initial;&quot;&gt;&lt;br&gt;&lt;/span&gt;&lt;/font&gt;&lt;p style=&quot;margin: 0px; font-variant-numeric: normal; font-variant-east-asian: normal; font-variant-alternates: normal; font-kerning: auto; font-optical-sizing: auto; font-feature-settings: normal; font-variation-settings: normal; font-variant-position: normal; font-stretch: normal; line-height: normal; min-height: 15px; font-size: 30px;&quot; class=&quot;p2&quot;&gt;&lt;font style=&quot;font-size: 30px;&quot;&gt;&lt;br&gt;&lt;/font&gt;&lt;/p&gt;&lt;font style=&quot;font-size: 30px;&quot;&gt;CHELS&lt;br&gt;&lt;span style=&quot;background-color: initial;&quot;&gt;- give list of 5 UGC creators (fixed)&lt;br&gt;&lt;/span&gt;&lt;span style=&quot;background-color: initial;&quot;&gt;- review short movie &lt;/span&gt;&lt;span style=&quot;background-color: initial;&quot; class=&quot;Apple-converted-space&quot;&gt;&amp;nbsp;&lt;/span&gt;&lt;span style=&quot;background-color: initial;&quot;&gt;&lt;br&gt;&lt;/span&gt;&lt;/font&gt;&lt;p style=&quot;margin: 0px; font-variant-numeric: normal; font-variant-east-asian: normal; font-variant-alternates: normal; font-kerning: auto; font-optical-sizing: auto; font-feature-settings: normal; font-variation-settings: normal; font-variant-position: normal; font-stretch: normal; line-height: normal; min-height: 15px; font-size: 30px;&quot; class=&quot;p2&quot;&gt;&lt;font style=&quot;font-size: 30px;&quot;&gt;&lt;br&gt;&lt;/font&gt;&lt;/p&gt;&lt;font style=&quot;font-size: 30px;&quot;&gt;RAF&lt;br&gt;&lt;span style=&quot;background-color: initial;&quot;&gt;- give list of 5 UGC creators (fixed)&lt;br&gt;&lt;/span&gt;&lt;span style=&quot;background-color: initial;&quot;&gt;- Finish revising short movie&lt;br&gt;&lt;/span&gt;- Trailer short movie&lt;br&gt;&lt;span style=&quot;background-color: initial;&quot;&gt;- start revising according to feedback&lt;br&gt;&lt;/span&gt;&lt;/font&gt;&lt;p style=&quot;margin: 0px; font-variant-numeric: normal; font-variant-east-asian: normal; font-variant-alternates: normal; font-kerning: auto; font-optical-sizing: auto; font-feature-settings: normal; font-variation-settings: normal; font-variant-position: normal; font-stretch: normal; line-height: normal; min-height: 15px; font-size: 30px;&quot; class=&quot;p2&quot;&gt;&lt;font style=&quot;font-size: 30px;&quot;&gt;&lt;br&gt;&lt;/font&gt;&lt;/p&gt;&lt;font style=&quot;font-size: 30px;&quot;&gt;CAR&lt;br&gt;&lt;span style=&quot;background-color: initial;&quot;&gt;- give list of 5 UGC creators (fixed)&lt;br&gt;- review short movie&lt;/span&gt;&lt;span style=&quot;background-color: initial;&quot; class=&quot;Apple-converted-space&quot;&gt;&amp;nbsp;&lt;/span&gt;&lt;br&gt;&lt;/font&gt;" style="text;html=1;strokeColor=none;fillColor=none;align=left;verticalAlign=middle;whiteSpace=wrap;rounded=0;fontFamily=Times New Roman;fontSize=25;" vertex="1" parent="1">
          <mxGeometry x="2150" y="2860" width="600" height="1050" as="geometry" />
        </mxCell>
        <mxCell id="4fqIfzkiHuzWojqmN6L3-56" value="07 December, Thu" style="text;html=1;strokeColor=none;fillColor=none;align=center;verticalAlign=middle;whiteSpace=wrap;rounded=0;fontFamily=Times New Roman;fontSize=50;fontStyle=1" vertex="1" parent="1">
          <mxGeometry x="711" y="4330" width="488" height="30" as="geometry" />
        </mxCell>
        <mxCell id="4fqIfzkiHuzWojqmN6L3-57" value="08 December, Fri" style="text;html=1;strokeColor=none;fillColor=none;align=center;verticalAlign=middle;whiteSpace=wrap;rounded=0;fontFamily=Times New Roman;fontSize=50;fontStyle=1" vertex="1" parent="1">
          <mxGeometry x="1476" y="4340" width="488" height="30" as="geometry" />
        </mxCell>
        <mxCell id="4fqIfzkiHuzWojqmN6L3-58" value="" style="rounded=0;whiteSpace=wrap;html=1;fillColor=#fff2cc;strokeColor=#d6b656;" vertex="1" parent="1">
          <mxGeometry x="2110" y="4280" width="670" height="1360" as="geometry" />
        </mxCell>
        <mxCell id="4fqIfzkiHuzWojqmN6L3-59" value="09 December, Sat" style="text;html=1;strokeColor=none;fillColor=none;align=center;verticalAlign=middle;whiteSpace=wrap;rounded=0;fontFamily=Times New Roman;fontSize=50;fontStyle=1" vertex="1" parent="1">
          <mxGeometry x="2200" y="4340" width="488" height="30" as="geometry" />
        </mxCell>
        <mxCell id="_bSrDHOQWB3IjEJ-vkbJ-1" value="" style="rounded=0;whiteSpace=wrap;html=1;fillColor=#fff2cc;strokeColor=#d6b656;" vertex="1" parent="1">
          <mxGeometry x="625" y="5683" width="670" height="1360" as="geometry" />
        </mxCell>
        <mxCell id="_bSrDHOQWB3IjEJ-vkbJ-2" value="10 December, Sun" style="text;html=1;strokeColor=none;fillColor=none;align=center;verticalAlign=middle;whiteSpace=wrap;rounded=0;fontFamily=Times New Roman;fontSize=50;fontStyle=1" vertex="1" parent="1">
          <mxGeometry x="715" y="5743" width="488" height="30" as="geometry" />
        </mxCell>
        <mxCell id="_bSrDHOQWB3IjEJ-vkbJ-7" value="" style="rounded=0;whiteSpace=wrap;html=1;fillColor=#fad7ac;strokeColor=#b46504;" vertex="1" parent="1">
          <mxGeometry x="660" y="6003" width="590" height="150" as="geometry" />
        </mxCell>
        <mxCell id="_bSrDHOQWB3IjEJ-vkbJ-8" value="&lt;font style=&quot;font-size: 30px;&quot;&gt;CAR&lt;br&gt;- finalize website&lt;br&gt;&lt;/font&gt;" style="text;html=1;strokeColor=none;fillColor=none;align=left;verticalAlign=middle;whiteSpace=wrap;rounded=0;fontFamily=Times New Roman;fontSize=25;" vertex="1" parent="1">
          <mxGeometry x="672" y="6014.5" width="580" height="127" as="geometry" />
        </mxCell>
      </root>
    </mxGraphModel>
  </diagram>
</mxfile>
